<svg width="268" height="383" viewBox="0 0 268 383" fill="Pink" xmlns="http://www.w3.org/2000/svg">
<path d="M137.453 112.531C171.783 111.138 168.458 63.2513 137.453 64.2176C106.987 66.2922 107.271 110.03 137.453 112.531ZM126.369 79.5641C137.737 64.6154 161.069 80.3598 151.293 96.4737C141.517 112.587 114.746 98.122 126.369 79.5641Z" fill="#FFCA05"/>
<path d="M78.2 374.159C79.5926 376.632 82.0651 376.092 81.8093 373.591C80.7009 366.941 71.834 359.182 67.4006 356.965C67.1164 343.409 85.1344 332.07 96.1895 338.692C102.84 342.869 102.555 334.258 94.8254 332.07C81.2409 328.461 63.2514 339.544 62.143 354.493C39.72 344.518 11.7269 353.1 0.927467 375.267C-1.91448 380.781 2.54738 384.362 3.99677 380.951C17.2402 350.969 60.2105 347.331 78.2 374.159Z" fill="white"/>
<path d="M121.113 60.1812C142.996 43.8685 162.375 69.8723 160.158 56.8846C158.226 46.9094 152.116 26.6747 145.21 18.092C140.208 11.7261 136.94 6.32635 129.977 17.8362C124.833 26.3052 103.12 73.7658 121.11 60.1812H121.113Z" fill="#FFCA05"/>
<path d="M261.506 313.286C251.275 310.444 238.77 316.611 237.406 327.694C228.807 324.204 219.183 324.219 210.594 327.735C202.006 331.251 195.135 337.99 191.452 346.508C185.086 344.575 174.826 349.833 174.826 353.442C174.826 356.284 176.784 355.403 178.148 354.551C180.205 353.066 182.596 352.112 185.11 351.775C187.624 351.438 190.182 351.727 192.557 352.618C195.071 353.821 197.233 355.65 198.835 357.929C200.438 360.209 201.427 362.862 201.708 365.634C201.964 366.998 203.072 368.107 204.55 367.283C207.392 365.634 206.198 353.073 196.792 348.44C206.198 327.126 236.039 324.881 249.396 343.467C250.22 344.604 251.613 346.508 253.005 345.684C255.847 344.291 250.504 334.316 242.774 330.167C242.774 321.044 254.398 315.218 262.668 318.003C270.938 320.788 268.693 315.218 261.503 313.286H261.506Z" fill="white"/>
<path d="M185.911 115.855C179.545 108.665 170.678 111.422 169.569 115.571C168.911 118.857 168.54 122.195 168.461 125.546C156.013 128.871 124.437 129.411 110.028 124.722C110.022 120.238 109.469 115.771 108.38 111.422C107.271 107.557 98.4043 107.557 92.0383 114.747C87.0649 120.431 72.3721 151.692 70.4395 158.229C67.9386 165.134 75.6971 165.959 79.3064 163.486C86.2645 158.506 93.4736 153.887 100.905 149.646C103.747 158.484 111.136 160.701 122.504 161.554C106.447 177.042 141.062 174.001 151.861 174.286C159.876 174.001 161.552 164.594 155.726 161.809C164.252 162.094 174.284 157.66 176.217 151.578C191.165 156.552 213.873 187.302 207.791 160.701C205.858 154.051 190.91 121.397 185.908 115.855H185.911Z" fill="#FFCA05"/>
<path d="M178.721 295.552C172.895 302.77 176.789 307.744 178.721 304.703C191.169 284.212 220.81 286.429 232.434 308.568C235.475 314.252 238.115 309.676 234.364 302.486C230.512 295.561 224.385 290.179 217.02 287.253C209.655 284.327 201.506 284.036 193.951 286.429C192.989 281.843 190.539 277.703 186.983 274.65C183.428 271.598 178.964 269.805 174.285 269.548C163.77 253.462 161.809 229.761 161.269 196.993C160.985 186.449 156.551 185.085 156.295 188.666C154.079 225.782 156.011 254.855 170.136 272.02C171.559 273.739 173.6 274.831 175.82 275.061C179.081 275.7 182.071 277.313 184.395 279.688C186.719 282.063 188.268 285.088 188.836 288.362C185.076 290.16 181.654 292.593 178.718 295.552H178.721Z" fill="white"/>
<path d="M72.0681 283.725C78.7182 282.332 84.8 286.766 85.6241 282.616C85.8012 281.064 86.5528 279.635 87.7309 278.609C88.9091 277.584 90.4285 277.036 91.9901 277.075C94.0145 277.166 96.0124 276.586 97.674 275.426C110.69 266.559 127.031 241.096 117.88 191.532C117.056 186.246 113.188 188.207 114.297 198.722C115.612 208.828 115.7 219.059 114.552 229.188C112.336 247.746 106.254 262.126 96.847 269.884C96.1257 270.497 95.2887 270.959 94.3855 271.242C93.4823 271.525 92.5315 271.624 91.5894 271.533C89.2673 271.488 86.9873 272.156 85.0564 273.447C83.1255 274.737 81.6365 276.589 80.79 278.751C66.9497 274.858 51.1485 286.766 51.1485 300.89C35.3757 295.632 16.5336 307.256 14.8852 323.341C14.0327 331.356 19.6881 333.033 20.1428 328.599C21.9617 310.354 41.4574 298.418 56.6903 309.473C57.7986 310.325 59.7312 311.15 60.2996 309.757C61.6637 307.54 58.6228 304.215 56.4061 302.851C56.1465 298.281 57.6114 293.78 60.5111 290.238C63.4107 286.697 67.534 284.372 72.0652 283.725H72.0681Z" fill="white"/>
<path d="M150.469 301.093C153.851 303.224 153.51 296.12 147.144 294.443C144.116 293.695 140.941 293.793 137.964 294.725C134.988 295.657 132.324 297.388 130.263 299.729C125.72 296.068 119.987 294.212 114.161 294.516C108.335 294.82 102.826 297.263 98.6888 301.377C97.6823 302.221 96.8841 303.286 96.3567 304.488C95.8292 305.691 95.5867 307 95.648 308.312C95.9037 310.244 99.2288 308.312 100.081 307.459C106.163 301.775 113.353 299.16 120.288 300.837C123.405 301.691 126.279 303.261 128.682 305.422C131.085 307.583 132.95 310.276 134.128 313.285C135.52 317.15 136.345 318.003 137.453 317.718C141.062 316.61 137.169 306.919 134.611 303.31C135.487 302.097 136.599 301.074 137.88 300.302C139.162 299.531 140.586 299.026 142.067 298.819C143.549 298.612 145.057 298.707 146.501 299.098C147.944 299.488 149.294 300.167 150.469 301.093Z" fill="white"/>
<path d="M180.534 103.39C179.71 77.812 178.602 66.3021 174.851 53.826C171.34 41.8211 166.216 30.3485 159.618 19.7226C151.859 7.53065 143.276 -0.76783 135.546 0.0563345C129.436 0.880499 121.138 9.74737 115.312 18.6142C100.079 42.1456 91.4962 80.0855 92.8887 102.509C82.3735 104.441 49.6911 161.479 61.8831 171.454C69.8974 178.104 89.0237 155.966 99.2547 152.072C101.02 155.44 103.714 158.231 107.016 160.115C99.8259 170.346 108.124 174.325 120.572 175.063C129.723 175.603 143.308 175.348 153.255 175.603C167.663 175.888 173.461 170.914 167.947 161.223C171.658 159.684 174.831 157.084 177.07 153.749C186.477 159.433 195.912 168.982 204.495 173.955C237.433 193.053 197.56 116.633 191.734 108.59C189.12 104.782 186.733 103.674 180.537 103.39H180.534ZM104.313 56.6111C108.07 44.2187 113.47 32.3856 120.37 21.4278C126.054 12.5609 131.141 5.85391 136.427 5.37078C140.292 5.02974 146.118 9.80421 152.2 18.6711C160.726 31.1188 169.65 50.2451 171.582 64.6254C167.673 66.3396 163.597 67.6444 159.419 68.5188C149.983 55.7869 126.736 55.7869 117.045 68.5188C112.025 67.4814 107.108 65.9976 102.352 64.0854C102.87 61.5589 103.523 59.0637 104.313 56.6111ZM154.701 103.134C140.861 119.191 114.544 106.999 115.369 86.2242C120.711 45.5275 181.359 68.2346 154.786 103.077L154.701 103.134ZM101.474 69.343C105.498 71.0323 109.676 72.3267 113.95 73.208C102.867 90.2597 117.531 116.406 138.05 115.837C143.022 115.769 147.893 114.423 152.195 111.929C156.496 109.435 160.084 105.876 162.613 101.595C165.142 97.3132 166.527 92.4533 166.635 87.482C166.743 82.5107 165.57 77.5953 163.23 73.208C166.523 72.4063 169.76 71.3905 172.921 70.1672C174.029 77.9257 174.598 88.1567 175.138 103.674C166.015 105.606 166.612 112.825 165.446 121.947C152.43 124.789 128.075 125.557 112.274 121.407C112.274 109.755 110.91 101.514 98.0639 101.514C98.4097 90.7211 99.5495 79.9684 101.474 69.343ZM102.327 144.939C93.9999 147.98 85.9856 154.061 76.2946 161.536C74.0601 163.409 71.5357 164.907 68.8203 165.969C66.6036 166.538 63.8185 166.253 65.211 160.285C72.1454 135.901 83.4847 118.48 91.5274 110.153C92.6824 109.031 94.081 108.191 95.614 107.698C97.1471 107.205 98.7733 107.073 100.366 107.311C105.084 107.766 105.851 109.528 106.05 112.569C106.505 116.462 107.442 135.56 107.158 139.425C107.442 141.33 107.982 142.864 102.185 144.939H102.327ZM157.688 170.147C144.013 170.644 130.32 170.178 116.707 168.754C107.584 167.078 111.023 164.037 112.842 161.28C123.357 162.104 149.105 162.388 162.406 162.104C164.764 167.646 166.129 169.578 157.546 170.147H157.688ZM163.372 156.847C157.29 157.387 114.348 156.847 110.483 155.738C107.801 154.514 105.573 152.476 104.117 149.912C113.808 146.587 113.24 146.871 112.416 127.177C127.364 130.786 150.356 130.502 164.764 127.745C163.912 139.653 161.439 147.411 171.67 151.276C170.862 152.824 169.679 154.144 168.23 155.117C166.78 156.09 165.11 156.684 163.372 156.847ZM207.394 169.578C202.477 166.737 184.971 150.196 172.495 145.763C169.454 144.655 168.914 143.262 168.914 141.329C168.914 137.749 170.562 119.191 171.756 113.365C172.949 107.539 184.488 107.283 187.557 111.972C198.636 128.251 206.783 146.343 211.628 165.429C212.31 169.038 212.452 172.534 207.394 169.578Z" fill="black"/>
<path d="M150.072 72.6682C139.016 65.1939 128.189 68.7747 123.215 77.1016C121.711 79.2342 120.677 81.6622 120.182 84.2246C119.687 86.787 119.742 89.4254 120.344 91.9648C120.946 94.5043 122.081 96.8868 123.673 98.9544C125.266 101.022 127.28 102.728 129.581 103.958C133.539 106.007 138.089 106.603 142.441 105.643C146.793 104.682 150.67 102.225 153.397 98.7004C159.223 91.2261 158.654 78.4657 150.072 72.6682ZM149.787 94.5512C140.381 109.216 116.849 95.3753 127.649 79.5741C136.8 66.1317 158.654 79.8583 149.787 94.5512Z" fill="black"/>
</svg>
