<svg width="101" height="100" viewBox="0 0 101 100" fill="none" xmlns="http://www.w3.org/2000/svg">
<path d="M87.3653 86.3098C94.943 78.5965 92.7882 73.9391 92.3617 26.4392C92.3167 21.7805 90.5527 17.3026 87.4083 13.8648C84.2639 10.4271 79.9607 8.27179 75.3245 7.81255C73.9148 7.67592 77.5833 7.68698 26.8379 8.14087C21.8338 8.18914 17.0535 10.2217 13.547 13.7922C10.0405 17.3626 8.09466 22.1789 8.13682 27.1831C8.5726 76.7759 7.06679 79.2536 13.5506 86.2777C15.3342 88.22 17.506 89.7659 19.9252 90.8153C22.3444 91.8647 24.9571 92.3942 27.5939 92.3695C75.5147 91.9539 80.0376 93.7627 87.3651 86.3123L87.3653 86.3098Z" fill="white"/>
<rect x="8.40361" y="8" width="83" height="84" rx="19" fill="#8A0404"/>
<rect x="19.4036" y="8" width="72" height="73" rx="19" fill="#D90303"/>
<path d="M51.581 54.0403L51.581 60.6245C51.581 61.9342 52.1013 63.1902 53.0274 64.1163C53.9535 65.0424 55.2095 65.5627 56.5192 65.5627L63.1035 50.7482L63.1035 32.6415L44.5359 32.6415C43.742 32.6326 42.9715 32.9108 42.3666 33.425C41.7616 33.9393 41.3629 34.6548 41.2438 35.4398L38.9722 50.2543C38.9006 50.7262 38.9325 51.2079 39.0655 51.6662C39.1986 52.1246 39.4297 52.5485 39.7428 52.9086C40.056 53.2687 40.4437 53.5564 40.8791 53.7519C41.3145 53.9473 41.7872 54.0457 42.2644 54.0403L51.581 54.0403ZM63.1035 32.6415L68.0416 32.6415C68.9148 32.6415 69.7521 32.9884 70.3695 33.6058C70.9869 34.2232 71.3337 35.0605 71.3337 35.9336L71.3337 47.456C71.3337 48.3292 70.9869 49.1665 70.3695 49.7839C69.7521 50.4013 68.9147 50.7482 68.0416 50.7482L63.1035 50.7482" fill="white"/>
<path d="M63.1035 50.7482L56.5192 65.5627C55.2095 65.5627 53.9535 65.0424 53.0274 64.1163C52.1013 63.1902 51.581 61.9342 51.581 60.6245L51.581 54.0403L42.2644 54.0403C41.7872 54.0457 41.3145 53.9473 40.8791 53.7519C40.4437 53.5564 40.056 53.2687 39.7428 52.9086C39.4297 52.5485 39.1986 52.1246 39.0655 51.6662C38.9325 51.2079 38.9006 50.7262 38.9722 50.2543L41.2438 35.4398C41.3629 34.6548 41.7616 33.9393 42.3666 33.425C42.9715 32.9108 43.742 32.6326 44.5359 32.6415L63.1035 32.6415M63.1035 50.7482L63.1035 32.6415M63.1035 50.7482L68.0416 50.7482C68.9147 50.7482 69.7521 50.4013 70.3695 49.7839C70.9869 49.1665 71.3337 48.3292 71.3337 47.456L71.3337 35.9336C71.3337 35.0605 70.9869 34.2232 70.3695 33.6058C69.7521 32.9884 68.9148 32.6415 68.0416 32.6415L63.1035 32.6415" stroke="black" stroke-width="2.99283" stroke-linecap="round" stroke-linejoin="round"/>
<path d="M94.1911 72.9168L93.7736 26.4313C93.7203 21.0507 91.5343 15.9112 87.6954 12.1407C83.8566 8.3703 78.6785 6.27709 73.2979 6.32056L26.825 6.73669C21.4446 6.79258 16.3059 8.97962 12.5355 12.8183C8.76513 16.6571 6.67073 21.8342 6.7115 27.2147C7.13825 74.7372 5.18837 80.1226 13.2015 88.0064C21.1799 95.8369 25.5398 93.8405 74.0888 93.4084C79.4696 93.3496 84.6075 91.1594 88.3758 87.3181C92.1442 83.4767 94.2355 78.2978 94.1911 72.9168ZM34.0377 10.6186C76.9927 10.2335 73.8498 10.2335 75.0789 10.3526C79.0924 10.7487 82.8181 12.6131 85.5411 15.588C88.2641 18.5628 89.7925 22.4385 89.833 26.4712L90.1867 65.7585C89.3914 69.4845 87.3512 72.8286 84.4017 75.2403C81.4523 77.6519 77.7695 78.9874 73.9599 79.0268L38.2931 79.3469C36.0945 79.3688 33.9131 78.9568 31.8739 78.1347C29.8347 77.3125 27.9776 76.0962 26.409 74.5555C24.8404 73.0148 23.591 71.1799 22.7324 69.1557C21.8737 67.1316 21.4227 64.958 21.4051 62.7593C21.0733 25.6934 19.4422 21.7633 25.8789 15.2101C28.1036 12.931 30.935 11.3376 34.0377 10.6186ZM74.0542 89.4383C2.14824 90.0855 11.2985 98.3167 10.6623 27.1732C10.6319 22.9375 12.244 18.8547 15.1602 15.7825C18.0764 12.7103 22.0697 10.8878 26.3013 10.6976C15.187 18.6348 17.9236 27.3603 18.243 62.7774C18.2847 67.6862 20.14 72.4063 23.452 76.0297C26.7641 79.6531 31.2989 81.9239 36.1843 82.4053C37.7102 82.5532 35.1739 82.5271 73.989 82.1775C77.1985 82.1558 80.3547 81.3554 83.1866 79.8449C86.0185 78.3344 88.4414 76.159 90.2471 73.5057C90.1349 77.7408 88.3849 81.7674 85.3649 84.7388C82.345 87.7102 78.2906 89.3948 74.0542 89.4383Z" fill="black"/>
</svg>
