<svg width="217" height="210" viewBox="0 0 217 210" fill="none" xmlns="http://www.w3.org/2000/svg">
<path d="M115.279 52.793C124.357 61.5405 127.156 81.8302 137.758 86.0917C140.542 86.9073 143.517 86.782 146.222 85.7352C148.927 84.6884 151.211 82.7785 152.721 80.3016C155.623 75.2745 157.272 69.6222 157.528 63.8229C206.272 98.1595 165.543 174.01 107.198 163.718C79.5181 158.842 49.2152 107.889 69.3405 121.265C73.6582 124.284 78.6328 126.231 83.8524 126.945C89.0721 127.659 94.3869 127.12 99.3569 125.373C106.918 120.874 106.14 108.302 94.5759 102.347C83.7143 96.7622 75.1025 95.249 84.2737 78.1299C94.5288 58.9961 95.6424 58.3811 91.6073 53.0308C89.781 50.7289 88.4333 48.0851 87.6436 45.2548C87.7353 42.3053 106.395 44.2479 115.279 52.793Z" fill="#FFCA05"/>
<path d="M161.545 62.4933C156.738 58.714 153.462 57.6368 153.108 58.1912C152.45 58.5555 152.753 60.3121 153.163 63.1971C155.979 84.2491 138.375 91.8556 132.503 73.8903C124.791 51.8258 118.781 36.6779 89.758 41.3435C83.9846 42.2113 83.2762 43.8208 87.7418 49.2014C97.6296 61.1222 82.8965 65.3607 77.3003 80.8554C75.4663 85.1514 75.0784 89.9272 76.1953 94.4628C77.3121 98.9985 79.8732 103.048 83.4923 106.001C89.6008 110.492 99.2521 111.678 100.126 115.445C101.669 118.994 97.9967 124.746 88.3787 125.294C72.8011 126.138 63.5536 111.771 62.223 112.573C59.9576 112.272 58.3953 128.966 72.5505 145.349C82.1633 156.637 95.402 164.232 109.999 166.832C124.596 169.432 139.643 166.876 152.563 159.602C160.921 154.9 168.013 148.241 173.23 140.194C178.447 132.148 181.633 122.955 182.515 113.406C183.398 103.856 181.952 94.2346 178.299 85.367C174.647 76.4993 168.898 68.6503 161.545 62.4933ZM77.9822 140.338C72.378 135.048 68.017 128.582 65.2134 121.404C69.3348 127.325 75.5183 131.495 82.5529 133.096C89.5875 134.697 96.9665 133.614 103.244 130.059C105.472 128.675 107.307 126.741 108.574 124.443C109.84 122.146 110.494 119.562 110.475 116.939C110.456 114.315 109.763 111.741 108.463 109.463C107.164 107.184 105.301 105.277 103.052 103.925C95.5027 99.22 81.8863 99.1996 86.444 83.8491C89.6484 72.9028 107.819 57.8845 90.4394 46.1623C88.3239 44.8932 88.5416 45.116 89.6039 45.4014C95.6143 46.8918 97.6018 46.8564 101.819 48.1109C124.703 54.7816 116.801 78.3342 130.394 89.7793C143.192 101.09 166.7 86.5349 158.71 65.3996C207.002 124.622 129.729 191.281 77.9822 140.338Z" fill="black"/>
<path d="M20.4184 88.3306C11.5451 99.4476 20.048 88.7719 31.5187 95.3946C33.7502 96.6819 38.1988 102.255 39.0994 101.592C39.2994 101.445 39.2134 101.11 39.1178 100.868C37.7017 97.1237 37.2439 93.1217 37.7912 89.2704C38.3386 85.4191 39.8713 81.8565 42.233 78.9467C43.3314 77.6304 42.5375 76.7822 40.925 77.1198C37.8691 77.8589 34.6584 77.9315 31.4888 77.3331C28.4147 76.345 22.6811 71.7457 20.0239 69.2284C22.3049 76.7029 23.4636 84.8682 18.7947 90.5103L20.4184 88.3306Z" fill="white"/>
<path d="M44.3794 76.6169C44.0554 75.1669 35.3585 78.5094 29.3787 75.5145C22.3968 72.0287 18.2983 64.4154 17.4005 65.0138C15.8828 65.8156 24.5912 78.3837 19.0142 88.6182C16.993 92.3283 14.1171 94.4478 14.5158 95.0065C15.203 96.4618 25.1376 89.5873 35.4703 100.083C38.4867 103.12 40.5897 106.07 41.1115 105.875C42.3902 105.558 35.4981 93.5948 40.4092 82.9515C42.2917 78.9607 44.7358 77.1476 44.3794 76.6169ZM38.6635 81.9826C36.3757 87.52 36.0886 93.8491 37.8521 99.8649C35.4972 96.9297 32.435 94.6928 29.019 93.4124C25.6029 92.132 21.9723 91.8603 18.5459 92.6286C22.1033 89.2275 24.392 82.1914 21.5705 72.682C21.1484 71.27 20.9963 71.396 21.8109 72.2462C23.7169 74.4663 26.0733 76.2183 28.6862 77.3581C31.2991 78.4978 34.094 78.9928 36.8408 78.8022C44.3877 78.2492 41.393 76.1636 38.6635 81.9826Z" fill="black"/>
</svg>
