<svg width="101" height="100" viewBox="0 0 101 100" fill="none" xmlns="http://www.w3.org/2000/svg">
<rect x="8.40361" y="8" width="83" height="84" rx="19" fill="#00B140"/>
<rect x="19.4036" y="8" width="72" height="73" rx="19" fill="#40FF85"/>
<path d="M94.0816 72.9168L93.6642 26.4313C93.6108 21.0507 91.4248 15.9112 87.586 12.1407C83.7471 8.3703 78.569 6.27709 73.1884 6.32056L26.7155 6.73669C21.3351 6.79258 16.1964 8.97962 12.426 12.8183C8.65564 16.6571 6.56125 21.8342 6.60202 27.2147C7.02877 74.7372 5.07889 80.1226 13.092 88.0064C21.0704 95.8369 25.4303 93.8405 73.9793 93.4084C79.3601 93.3496 84.498 91.1594 88.2663 87.3181C92.0347 83.4767 94.126 78.2978 94.0816 72.9168ZM33.9282 10.6186C76.8832 10.2335 73.7403 10.2335 74.9695 10.3526C78.9829 10.7487 82.7086 12.6131 85.4316 15.588C88.1547 18.5628 89.683 22.4385 89.7235 26.4712L90.0772 65.7585C89.2819 69.4845 87.2417 72.8286 84.2922 75.2403C81.3428 77.6519 77.6601 78.9874 73.8504 79.0268L38.1836 79.3469C35.985 79.3688 33.8036 78.9568 31.7644 78.1347C29.7252 77.3125 27.8681 76.0962 26.2995 74.5555C24.7309 73.0148 23.4815 71.1799 22.6229 69.1557C21.7643 67.1316 21.3133 64.958 21.2957 62.7593C20.9638 25.6934 19.3327 21.7633 25.7694 15.2101C27.9941 12.931 30.8255 11.3376 33.9282 10.6186ZM73.9447 89.4383C2.03876 90.0855 11.1891 98.3167 10.5528 27.1732C10.5224 22.9375 12.1345 18.8547 15.0507 15.7825C17.9669 12.7103 21.9602 10.8878 26.1918 10.6976C15.0775 18.6348 17.8141 27.3603 18.1335 62.7774C18.1752 67.6862 20.0305 72.4063 23.3425 76.0297C26.6546 79.6531 31.1894 81.9239 36.0748 82.4053C37.6008 82.5532 35.0645 82.5271 73.8795 82.1775C77.089 82.1558 80.2452 81.3554 83.0771 79.8449C85.909 78.3344 88.3319 76.159 90.1377 73.5057C90.0255 77.7408 88.2754 81.7674 85.2555 84.7388C82.2355 87.7102 78.1811 89.3948 73.9447 89.4383Z" fill="black"/>
<path d="M60.4501 38.1783V31.5941C60.4501 30.2844 59.9298 29.0283 59.0037 28.1022C58.0776 27.1762 56.8216 26.6559 55.5119 26.6559L48.9276 41.4704V59.577H67.4952C68.2891 59.586 69.0596 59.3078 69.6645 58.7935C70.2695 58.2793 70.6683 57.5638 70.7873 56.7787L73.0589 41.9642C73.1305 41.4924 73.0986 41.0106 72.9656 40.5523C72.8325 40.094 72.6014 39.6701 72.2883 39.31C71.9751 38.9499 71.5874 38.6621 71.152 38.4667C70.7166 38.2713 70.2439 38.1729 69.7667 38.1783H60.4501ZM48.9276 59.577H43.9895C43.1164 59.577 42.279 59.2302 41.6616 58.6128C41.0442 57.9954 40.6974 57.158 40.6974 56.2849V44.7625C40.6974 43.8894 41.0442 43.052 41.6616 42.4346C42.279 41.8173 43.1164 41.4704 43.9895 41.4704H48.9276" fill="white"/>
<path d="M48.9276 41.4704L55.5119 26.6559C56.8216 26.6559 58.0776 27.1762 59.0037 28.1022C59.9298 29.0283 60.4501 30.2844 60.4501 31.5941V38.1783H69.7667C70.2439 38.1729 70.7166 38.2713 71.152 38.4667C71.5874 38.6621 71.9751 38.9499 72.2883 39.31C72.6014 39.6701 72.8325 40.094 72.9656 40.5523C73.0986 41.0106 73.1305 41.4924 73.0589 41.9642L70.7873 56.7787C70.6683 57.5638 70.2695 58.2793 69.6645 58.7935C69.0596 59.3078 68.2891 59.586 67.4952 59.577H48.9276M48.9276 41.4704V59.577M48.9276 41.4704H43.9895C43.1164 41.4704 42.279 41.8173 41.6616 42.4346C41.0442 43.052 40.6974 43.8894 40.6974 44.7625V56.2849C40.6974 57.158 41.0442 57.9954 41.6616 58.6128C42.279 59.2302 43.1164 59.577 43.9895 59.577H48.9276" stroke="black" stroke-width="2.99283" stroke-linecap="round" stroke-linejoin="round"/>
<path d="M60.4501 38.1783V31.5941C60.4501 30.2844 59.9298 29.0283 59.0037 28.1022C58.0776 27.1762 56.8216 26.6559 55.5119 26.6559L48.9276 41.4704V59.577H67.4952C68.2891 59.586 69.0596 59.3078 69.6645 58.7935C70.2695 58.2793 70.6683 57.5638 70.7873 56.7787L73.0589 41.9642C73.1305 41.4924 73.0986 41.0106 72.9656 40.5523C72.8325 40.094 72.6014 39.6701 72.2883 39.31C71.9751 38.9499 71.5874 38.6621 71.152 38.4667C70.7166 38.2713 70.2439 38.1729 69.7667 38.1783H60.4501Z" fill="white" stroke="black" stroke-width="2.99283" stroke-linecap="round" stroke-linejoin="round"/>
</svg>
