<svg width="177" height="170" viewBox="0 0 177 170" fill="none" xmlns="http://www.w3.org/2000/svg">
<g id="Group 26">
<g id="Group 19">
<path id="Vector_64" d="M94.0425 42.7071C101.424 49.8196 103.7 66.3169 112.32 69.7819C114.584 70.445 117.002 70.3432 119.202 69.492C121.402 68.6408 123.259 67.088 124.486 65.074C126.846 60.9865 128.187 56.3907 128.395 51.6754C168.028 79.594 134.912 141.268 87.472 132.899C64.9661 128.935 40.3271 87.5054 56.6907 98.3808C60.2015 100.835 64.2462 102.418 68.4902 102.999C72.7343 103.58 77.0556 103.142 81.0967 101.721C87.2447 98.0633 86.6118 87.8407 77.2094 82.9987C68.3779 78.4579 61.3758 77.2276 68.8328 63.3083C77.1711 47.7508 78.0765 47.2508 74.7956 42.9005C73.3106 41.0288 72.2149 38.8792 71.5728 36.5779C71.6473 34.1797 86.8192 35.7592 94.0425 42.7071Z" fill="#FFCA05"/>
<path id="Vector_65" d="M131.661 50.5943C127.753 47.5214 125.089 46.6455 124.801 47.0963C124.266 47.3925 124.513 48.8208 124.846 51.1666C127.135 68.2836 112.822 74.4685 108.048 59.8611C101.777 41.9207 96.8905 29.6041 73.292 33.3977C68.5977 34.1033 68.0217 35.412 71.6527 39.7868C79.6923 49.4795 67.7129 52.9258 63.1628 65.5243C61.6715 69.0173 61.3562 72.9004 62.2643 76.5883C63.1724 80.2762 65.2547 83.5689 68.1974 85.9702C73.1642 89.6215 81.0115 90.5859 81.7218 93.6484C82.9764 96.5344 79.9907 101.211 72.1705 101.657C59.5045 102.343 51.9855 90.6616 50.9036 91.3133C49.0616 91.0689 47.7914 104.643 59.3008 117.963C67.1168 127.141 77.8811 133.317 89.7497 135.431C101.618 137.545 113.853 135.467 124.358 129.552C131.154 125.729 136.92 120.314 141.162 113.772C145.404 107.229 147.995 99.7549 148.711 91.9905C149.43 84.2258 148.254 76.4028 145.284 69.1926C142.314 61.9824 137.639 55.6005 131.661 50.5943ZM63.7172 113.889C59.1605 109.588 55.6146 104.33 53.3351 98.4937C56.6861 103.308 61.7138 106.699 67.4336 108C73.1533 109.302 79.1531 108.422 84.2577 105.532C86.0692 104.406 87.5612 102.833 88.5906 100.965C89.6201 99.0972 90.1526 96.996 90.1369 94.8631C90.1212 92.7303 89.558 90.6372 88.5012 88.7845C87.4444 86.9317 85.9295 85.3815 84.1016 84.2823C77.9629 80.4564 66.8916 80.4397 70.5974 67.9584C73.2029 59.0582 87.9776 46.8469 73.846 37.3158C72.1259 36.2839 72.303 36.465 73.1667 36.6971C78.0536 37.9089 79.6696 37.8801 83.099 38.9002C101.705 44.324 95.2807 63.4743 106.332 72.7802C116.739 81.977 135.852 70.1422 129.356 52.9573C168.621 101.11 105.792 155.31 63.7172 113.889Z" fill="black"/>
</g>
<g id="Group_16">
<path id="Vector_66" d="M16.9127 71.6023C9.69787 80.6414 16.6115 71.9611 25.9382 77.3459C27.7526 78.3927 31.3696 82.9244 32.1019 82.3851C32.2645 82.2654 32.1946 81.9929 32.1169 81.796C30.9655 78.7519 30.5933 75.4979 31.0383 72.3664C31.4833 69.235 32.7296 66.3383 34.6498 63.9723C35.5429 62.9021 34.8974 62.2124 33.5863 62.4869C31.1016 63.0879 28.491 63.1469 25.9139 62.6604C23.4143 61.857 18.7524 58.1173 16.5919 56.0705C18.4465 62.1479 19.3886 68.7871 15.5924 73.3746L16.9127 71.6023Z" fill="white"/>
<path id="Vector_67" d="M36.3952 62.078C36.1318 60.8991 29.0604 63.6168 24.1983 61.1817C18.5214 58.3474 15.1889 52.1571 14.459 52.6437C13.225 53.2956 20.3056 63.5146 15.7711 71.8362C14.1276 74.8528 11.7893 76.5761 12.1135 77.0304C12.6722 78.2137 20.7499 72.6241 29.1513 81.1577C31.6039 83.627 33.3138 86.0257 33.7381 85.8672C34.7778 85.6099 29.1739 75.8826 33.1671 67.2286C34.6977 63.9837 36.6849 62.5095 36.3952 62.078ZM31.7476 66.4408C29.8875 70.9432 29.654 76.0893 31.0879 80.9807C29.1731 78.5941 26.6833 76.7753 23.9058 75.7342C21.1283 74.6931 18.1762 74.4722 15.3903 75.0969C18.2828 72.3315 20.1437 66.6106 17.8496 58.8786C17.5063 57.7305 17.3827 57.833 18.045 58.5243C19.5948 60.3294 21.5107 61.7539 23.6352 62.6807C25.7598 63.6074 28.0322 64.0098 30.2657 63.8549C36.4019 63.4053 33.967 61.7095 31.7476 66.4408Z" fill="black"/>
</g>
</g>
</svg>
