<svg width="1932" height="953" viewBox="0 0 1932 953" fill="none" xmlns="http://www.w3.org/2000/svg">
<path d="M814.363 2V625.541L483.686 951" stroke="#353535" stroke-opacity="0.19" stroke-width="3" stroke-linecap="round" stroke-linejoin="round"/>
<path d="M1872.52 2V625.541L1929.58 634.917" stroke="#353535" stroke-opacity="0.19" stroke-width="3" stroke-linecap="round" stroke-linejoin="round"/>
<path d="M1721.36 2V625.541L1929.58 666.61" stroke="#353535" stroke-opacity="0.19" stroke-width="3" stroke-linecap="round" stroke-linejoin="round"/>
<path d="M1570.19 2V625.541L1929.58 714.162" stroke="#353535" stroke-opacity="0.19" stroke-width="3" stroke-linecap="round" stroke-linejoin="round"/>
<path d="M1419.02 2V625.541L1929.58 793.428" stroke="#353535" stroke-opacity="0.19" stroke-width="3" stroke-linecap="round" stroke-linejoin="round"/>
<path d="M1116.69 2V625.541L1446.24 951" stroke="#353535" stroke-opacity="0.19" stroke-width="3" stroke-linecap="round" stroke-linejoin="round"/>
<path d="M663.196 2V625.541L2.41211 951" stroke="#353535" stroke-opacity="0.19" stroke-width="3" stroke-linecap="round" stroke-linejoin="round"/>
<path d="M512.031 2V625.541L2 793.064" stroke="#353535" stroke-opacity="0.19" stroke-width="3" stroke-linecap="round" stroke-linejoin="round"/>
<path d="M360.874 2V625.541L2.00195 713.956" stroke="#353535" stroke-opacity="0.19" stroke-width="3" stroke-linecap="round" stroke-linejoin="round"/>
<path d="M209.71 2V625.541L2.00195 666.482" stroke="#353535" stroke-opacity="0.19" stroke-width="3" stroke-linecap="round" stroke-linejoin="round"/>
<path d="M58.5431 2V625.541L2 634.828" stroke="#353535" stroke-opacity="0.19" stroke-width="3" stroke-linecap="round" stroke-linejoin="round"/>
<path d="M965.527 2V625.541L964.957 951" stroke="#353535" stroke-opacity="0.19" stroke-width="3" stroke-linecap="round" stroke-linejoin="round"/>
<path d="M1267.86 2V625.541L1930 951" stroke="#353535" stroke-opacity="0.19" stroke-width="3" stroke-linecap="round" stroke-linejoin="round"/>
<path d="M2.41211 30.1555H1930" stroke="#353535" stroke-opacity="0.19" stroke-width="3" stroke-linecap="round" stroke-linejoin="round"/>
<path d="M2.41211 104.579H1930" stroke="#353535" stroke-opacity="0.19" stroke-width="3" stroke-linecap="round" stroke-linejoin="round"/>
<path d="M2.41211 179.001H1930" stroke="#353535" stroke-opacity="0.19" stroke-width="3" stroke-linecap="round" stroke-linejoin="round"/>
<path d="M2.41211 327.848H1930" stroke="#353535" stroke-opacity="0.19" stroke-width="3" stroke-linecap="round" stroke-linejoin="round"/>
<path d="M2.41211 402.271H1930" stroke="#353535" stroke-opacity="0.19" stroke-width="3" stroke-linecap="round" stroke-linejoin="round"/>
<path d="M2.41211 476.693H1930" stroke="#353535" stroke-opacity="0.19" stroke-width="3" stroke-linecap="round" stroke-linejoin="round"/>
<path d="M2.41211 253.424H1930" stroke="#353535" stroke-opacity="0.19" stroke-width="3" stroke-linecap="round" stroke-linejoin="round"/>
<path d="M2.41211 551.117H1930" stroke="#353535" stroke-opacity="0.19" stroke-width="3" stroke-linecap="round" stroke-linejoin="round"/>
<path d="M7.6582 625.54H1899.87" stroke="#353535" stroke-opacity="0.19" stroke-width="3" stroke-linecap="round" stroke-linejoin="round"/>
<path d="M1929.58 625.54H2" stroke="#353535" stroke-opacity="0.19" stroke-width="3" stroke-linecap="round" stroke-linejoin="round"/>
<path d="M1929.58 851.23H2" stroke="#353535" stroke-opacity="0.19" stroke-width="3" stroke-linecap="round" stroke-linejoin="round"/>
<path d="M1929.58 938.725H2" stroke="#353535" stroke-opacity="0.19" stroke-width="3" stroke-linecap="round" stroke-linejoin="round"/>
<path d="M1929.58 637.673H2" stroke="#353535" stroke-opacity="0.19" stroke-width="3" stroke-linecap="round" stroke-linejoin="round"/>
<path d="M1929.58 651.955H2" stroke="#353535" stroke-opacity="0.19" stroke-width="3" stroke-linecap="round" stroke-linejoin="round"/>
<path d="M1929.58 669.018H2" stroke="#353535" stroke-opacity="0.19" stroke-width="3" stroke-linecap="round" stroke-linejoin="round"/>
<path d="M1929.58 791.587H2" stroke="#353535" stroke-opacity="0.19" stroke-width="3" stroke-linecap="round" stroke-linejoin="round"/>
<path d="M1929.58 689.758H2" stroke="#353535" stroke-opacity="0.19" stroke-width="3" stroke-linecap="round" stroke-linejoin="round"/>
<path d="M1929.58 715.507H2" stroke="#353535" stroke-opacity="0.19" stroke-width="3" stroke-linecap="round" stroke-linejoin="round"/>
<path d="M1929.58 748.326H2" stroke="#353535" stroke-opacity="0.19" stroke-width="3" stroke-linecap="round" stroke-linejoin="round"/>
</svg>
