<svg width="86" height="86" viewBox="0 0 86 86" fill="none" xmlns="http://www.w3.org/2000/svg">
<g id="notification-alert 1" clip-path="url(#clip0_13009_491)">
<g id="Group">
<g id="Group_2">
<g id="Group_3">
<path id="Vector" d="M53.581 63.2819C55.0148 67.091 53.0981 71.3385 49.289 72.7722C45.4706 74.2094 41.229 72.2799 39.7952 68.4708C38.365 64.6711 40.2852 60.433 44.1036 58.9958C47.9127 57.562 52.1508 59.4822 53.581 63.2819Z" fill="#42DEF4"/>
</g>
<g id="Group_4">
<g id="Group_5">
<path id="Vector_2" d="M53.5811 63.2819C53.4782 63.3207 53.2764 62.9265 52.7442 62.2506C52.2284 61.59 51.3552 60.6044 49.8317 59.9063C48.3561 59.2223 46.1155 58.8903 43.8896 60.0166C42.803 60.5645 41.7683 61.4775 41.0851 62.7284C40.3984 63.9699 40.089 65.5608 40.4164 67.1686C40.7531 68.7728 41.6607 70.1621 42.8462 71.0408C44.0259 71.9324 45.4263 72.3883 46.7488 72.382C48.0668 72.4202 49.2882 72.0032 50.2823 71.4367C51.2659 70.8421 52.0175 70.057 52.5374 69.2523C53.5888 67.6171 53.7132 65.9889 53.6826 64.9426C53.6357 63.8811 53.4653 63.3148 53.5811 63.2819C53.6466 63.2573 54.0136 63.7495 54.2841 64.8658C54.5289 65.9704 54.6564 67.8136 53.602 69.8666C53.0707 70.868 52.2457 71.8837 51.0868 72.6939C49.9267 73.4725 48.4398 74.0642 46.7603 74.0873C45.0984 74.1572 43.2778 73.6351 41.7443 72.5134C40.1957 71.4081 38.988 69.6188 38.5606 67.5465C38.1261 65.4555 38.5602 63.4009 39.4805 61.8151C40.4009 60.2292 41.7689 59.0946 43.1691 58.4714C44.5787 57.8447 46.011 57.6474 47.2542 57.7992C48.509 57.9253 49.5723 58.3371 50.4109 58.8335C52.1045 59.8415 52.8938 61.1152 53.2705 61.9457C53.6414 62.7891 53.6373 63.2608 53.5811 63.2819Z" fill="black"/>
</g>
</g>
</g>
<g id="Group_6">
<g id="Group_7">
<path id="Vector_3" d="M35.3376 21.9383C36.169 24.147 34.9291 26.6439 32.5706 27.5316C29.454 28.7047 25.7652 26.0863 26.7149 22.6195C27.7881 18.743 33.8405 17.9608 35.3376 21.9383Z" fill="#42DEF4"/>
</g>
<g id="Group_8">
<g id="Group_9">
<path id="Vector_4" d="M35.3376 21.9383C35.2534 21.97 35.0401 21.7725 34.7342 21.3854C34.3733 21.0512 33.8565 20.5298 32.9725 20.2535C32.1166 19.9666 30.8525 19.9295 29.6138 20.556C29.002 20.8611 28.4092 21.33 28.0226 21.9777C27.6324 22.616 27.431 23.4719 27.5795 24.2921C27.9221 25.9689 29.679 26.9745 31.0928 26.9552C32.5465 26.985 33.7592 26.176 34.4007 25.3255C35.0668 24.455 35.2377 23.5466 35.2686 22.9473C35.3018 22.3258 35.244 21.9735 35.3376 21.9383C35.4031 21.9137 35.6668 22.1884 35.8607 22.874C36.0383 23.5444 36.1146 24.7124 35.4163 25.9797C34.7577 27.2106 33.2764 28.5267 31.1136 28.657C30.065 28.7097 28.9036 28.463 27.8939 27.796C26.8725 27.1547 25.9981 26.052 25.6979 24.6584C25.4516 23.2659 25.807 21.9675 26.4495 20.9777C27.1014 19.9844 28.017 19.3513 28.8956 18.9886C30.6842 18.2619 32.3688 18.536 33.4451 19.1246C34.553 19.712 35.0222 20.5611 35.2347 21.0688C35.418 21.6409 35.4218 21.9066 35.3376 21.9383Z" fill="black"/>
</g>
</g>
</g>
<g id="Group_10">
<g id="Group_11">
<path id="Vector_5" d="M24.6876 65.1817C25.1575 61.8314 24.78 58.4154 23.608 55.245C23.601 55.2263 23.5975 55.217 23.5904 55.1982C22.4197 52.0595 20.9856 48.9023 20.4186 45.579C19.584 40.7216 20.6358 35.6244 23.5323 31.5958C25.6811 28.618 28.7319 26.3904 32.1573 25.1011C37.0053 23.2764 42.7042 23.4286 47.4262 25.7543C51.7324 27.8839 54.524 31.8657 56.4288 36.16C57.0286 37.5263 57.8822 39.7373 58.6384 41.8033C59.8715 45.1644 61.9725 48.1347 64.7246 50.4218L65.9337 51.4199L24.4172 67.0465L24.6876 65.1817Z" fill="#F4CD42"/>
</g>
<g id="Group_12">
<g id="Group_13">
<path id="Vector_6" d="M24.6876 65.1817C24.745 65.1921 24.7305 65.8066 24.6209 67.0767L24.3468 66.8593C28.7498 64.9028 42.1456 59.5295 65.6131 50.5682L65.3528 52.1193C64.1965 51.1762 62.8844 50.1315 61.785 48.857C60.6704 47.599 59.6632 46.1724 58.8467 44.5992C58.4337 43.8143 58.0699 42.9896 57.7493 42.138C57.437 41.3366 57.1118 40.5294 56.7925 39.7094C56.1351 38.0763 55.5501 36.3518 54.6984 34.7704C53.4337 32.3188 51.8346 30.1426 49.8792 28.4959C47.9425 26.8421 45.6027 25.8209 43.2296 25.2503C38.4495 24.1325 33.5968 25.0081 29.8389 27.1171C27.9453 28.1611 26.313 29.502 24.9946 31.024C23.6856 32.5424 22.7092 34.2349 22.0255 35.9668C20.6744 39.4457 20.5441 42.9887 21.112 46.0018C21.6997 49.0395 22.7902 51.6529 23.6065 53.9634C24.5047 56.2645 24.9274 58.3813 25.0489 60.0665C25.1832 61.7576 25.0748 63.0592 24.9588 63.915C24.8486 64.7578 24.7228 65.1898 24.6876 65.1817C24.5577 65.1772 24.895 63.4047 24.4626 60.1269C24.2288 58.484 23.736 56.5218 22.7583 54.2934C21.852 52.0274 20.6422 49.4376 19.9184 46.2374C19.217 43.0395 19.258 39.2309 20.6379 35.4312C21.3378 33.5437 22.3643 31.6721 23.7773 29.9756C25.1938 28.2885 26.9499 26.7941 29.0096 25.6235C33.0903 23.2648 38.3898 22.2424 43.6476 23.4368C46.2525 24.027 48.8943 25.1696 51.1017 27.0314C53.3019 28.8744 55.0394 31.2763 56.3921 33.8765C57.3118 35.5819 57.8909 37.3192 58.5624 38.9897C58.8888 39.8285 59.2117 40.6579 59.5276 41.4687C59.8106 42.249 60.1462 42.9988 60.5123 43.7158C61.2573 45.1557 62.1647 46.4596 63.1739 47.6077C64.1807 48.778 65.3206 49.706 66.5075 50.7017C66.8929 51.0161 66.9498 51.593 66.6226 51.9726C66.5197 52.0968 66.3841 52.1906 66.2437 52.2435C42.7045 60.986 29.0774 65.7732 24.4771 67.2056L24.4584 67.2126C24.3519 67.242 24.2453 67.186 24.2195 67.0889C24.2089 67.0608 24.2077 67.0292 24.2158 66.9941C24.4695 65.766 24.6303 65.1712 24.6876 65.1817Z" fill="black"/>
</g>
</g>
</g>
<g id="Group_14">
<g id="Group_15">
<path id="Vector_7" d="M71.4004 52.4291C72.3515 54.956 70.1059 56.2286 68.1031 56.9825C53.7242 62.384 39.3394 67.7983 24.964 73.2092C23.3729 73.808 21.5824 72.9968 20.9835 71.4057C20.3847 69.8147 21.1959 68.0242 22.787 67.4253L23.7603 67.0589C37.1717 62.0109 50.5138 56.7219 63.8888 51.5487C66.1466 50.6775 70.2379 49.3406 71.4004 52.4291Z" fill="#FC9231"/>
</g>
<g id="Group_16">
<g id="Group_17">
<path id="Vector_8" d="M71.4003 52.429C71.3441 52.4502 71.2268 52.1952 70.8986 51.8058C70.5798 51.413 69.9436 50.9151 68.9124 50.8438C67.8929 50.7468 66.5625 51.0445 65.0463 51.6152C63.5407 52.2139 61.7193 52.9957 59.6534 53.8374C55.5099 55.5465 50.2772 57.655 43.9086 60.1804C40.7161 61.4354 37.2463 62.8055 33.4864 64.2849C31.6029 65.0152 29.6481 65.783 27.6243 66.5661C26.6077 66.9595 25.5817 67.3563 24.5277 67.7637C24.0223 67.954 23.511 68.1571 22.9869 68.3544C22.6196 68.514 22.3133 68.7789 22.089 69.1197C21.6275 69.7956 21.6087 70.7109 22.0145 71.3916C22.4016 72.0793 23.1992 72.495 23.9669 72.4625C24.153 72.4459 24.3484 72.4257 24.5263 72.3588C24.7076 72.3012 25.0223 72.1721 25.2598 72.0934L26.7853 71.5192C27.7961 71.1387 28.7916 70.7747 29.7743 70.4048C33.7157 68.9534 37.4195 67.5806 40.8894 66.2959C47.8362 63.7453 53.8296 61.5856 58.7315 59.8474C61.1859 58.9876 63.3655 58.2207 65.2607 57.5501C67.1489 56.8607 68.8069 56.4397 69.9039 55.749C71.0559 55.091 71.4714 54.1225 71.4554 53.4554C71.478 52.8058 71.3348 52.4537 71.4003 52.429C71.419 52.422 71.4694 52.4992 71.5422 52.6641C71.6243 52.8255 71.7136 53.0911 71.7562 53.4597C71.8081 53.8248 71.7666 54.3106 71.5238 54.8294C71.2903 55.3447 70.8345 55.8368 70.2556 56.2577C69.6803 56.6879 68.9598 57.0446 68.162 57.3663C67.3735 57.6844 66.523 58.0366 65.5977 58.4169C63.74 59.1589 61.5957 60.0194 59.1741 60.995C54.3391 62.911 48.4092 65.2392 41.5047 67.9022C38.0489 69.2243 34.3498 70.638 30.4389 72.1421C29.4562 72.5119 28.4677 72.8947 27.4569 73.2752C26.9515 73.4654 26.4461 73.6556 25.9314 73.8493C25.66 73.9515 25.4576 74.0384 25.1136 74.1465C24.7732 74.2639 24.4116 74.3252 24.0547 74.342C22.6023 74.4293 21.1231 73.6504 20.3771 72.3498C19.5972 71.0727 19.6478 69.3334 20.5077 68.0695C20.9329 67.4393 21.5304 66.9259 22.2182 66.6243C22.4019 66.5444 22.5423 66.4916 22.6733 66.4423L23.0757 66.2908L23.8712 65.9914C24.9253 65.584 25.9512 65.1871 26.9714 64.8031C28.9987 64.0293 30.9606 63.2802 32.8441 62.5499C36.6216 61.1174 40.109 59.7941 43.3062 58.58C49.7171 56.1669 55.0191 54.2141 59.2201 52.6862C61.34 51.931 63.1369 51.2547 64.7561 50.7307C66.3766 50.2383 67.8299 50.0118 68.9936 50.2363C70.1748 50.4221 70.8826 51.1387 71.1418 51.6288C71.4081 52.1376 71.4319 52.4278 71.4003 52.429Z" fill="black"/>
</g>
</g>
</g>
<g id="Group_18">
<g id="Group_19">
<path id="Vector_9" d="M64.3479 14.5878L67.698 23.4882C68.082 24.5083 68.0529 25.6518 67.5942 26.6472L63.6722 35.3037C63.2228 36.2956 62.3951 37.0773 61.3656 37.4648L52.4652 40.8149C51.4451 41.1988 50.3015 41.1698 49.3061 40.711L40.6496 36.789C39.6578 36.3396 38.8761 35.5119 38.4886 34.4825L35.1385 25.5821C34.7545 24.5619 34.7836 23.4184 35.2423 22.423L39.1643 13.7665C39.6137 12.7746 40.4414 11.9929 41.4709 11.6054L50.3713 8.25537C51.3914 7.8714 52.535 7.90043 53.5304 8.35919L62.1869 12.2812C63.1881 12.7271 63.9604 13.5583 64.3479 14.5878Z" fill="#FF5757"/>
</g>
<g id="Group_20">
<g id="Group_21">
<path id="Vector_10" d="M64.348 14.5878C64.3012 14.6054 64.1886 14.3914 63.9084 14.016C63.6317 13.65 63.1582 13.1017 62.3455 12.7024C60.5808 11.9882 57.8137 10.8821 54.159 9.31936C53.7058 9.13733 53.2057 8.88747 52.8123 8.7791C52.3838 8.66258 51.9109 8.62688 51.4546 8.69181C50.9911 8.73802 50.5618 8.93167 49.9664 9.16648C49.4084 9.3872 48.841 9.61144 48.2549 9.84273C47.0827 10.3053 45.8544 10.789 44.5605 11.2974C43.9183 11.5498 43.2479 11.8128 42.5776 12.0758C42.2629 12.2049 41.8476 12.3506 41.5926 12.4679C41.3189 12.5923 41.0686 12.7506 40.8324 12.9464C40.6056 13.1386 40.3929 13.3683 40.2223 13.6248C40.0482 13.872 39.9385 14.1483 39.767 14.5441C39.4436 15.2749 39.1145 16.0185 38.7795 16.775C38.1002 18.2915 37.401 19.8689 36.6692 21.5013C36.4824 21.9135 36.305 22.3222 36.1124 22.7473C35.9548 23.0951 35.8663 23.4276 35.8199 23.787C35.7829 24.1429 35.8032 24.5092 35.8961 24.8695C35.9714 25.1831 36.1733 25.6628 36.3424 26.112C37.0223 27.9183 37.7268 29.7901 38.4689 31.7332L39.0114 33.1745C39.1934 33.6296 39.3731 34.1923 39.5268 34.4871C39.8987 35.1912 40.4529 35.6985 41.2504 36.0287C43.0445 36.8493 44.787 37.6466 46.4874 38.417C47.3376 38.8022 48.1691 39.1944 48.9935 39.568L49.6118 39.8481C49.805 39.9356 49.9432 39.9905 50.113 40.0441C50.449 40.142 50.799 40.1919 51.1373 40.1821C51.4849 40.1688 51.8242 40.1052 52.1424 39.9855C52.5448 39.834 52.9508 39.6919 53.3439 39.5439C54.1429 39.2538 54.9291 38.9579 55.7 38.6784C57.2419 38.1194 58.7335 37.5687 60.1725 37.0484C60.5188 36.9181 60.8686 36.7971 61.2055 36.6703C61.4828 36.5553 61.7459 36.4028 61.9892 36.2258C62.4779 35.8495 62.8121 35.4031 63.0712 34.8141C64.2807 32.2646 65.385 29.947 66.3715 27.8555C66.6143 27.3367 66.8642 26.8366 67.0953 26.3436C67.2972 25.915 67.4032 25.4584 67.4179 25.0148C67.4419 24.5676 67.384 24.13 67.2548 23.7298C67.0951 23.2771 66.9553 22.8489 66.8096 22.4336C66.2387 20.7465 65.763 19.3122 65.3741 18.1657C64.6176 15.8433 64.2638 14.6195 64.348 14.5878C64.4322 14.5561 64.9861 15.7153 65.9357 17.9543C66.4029 19.082 66.9874 20.4647 67.6706 22.1095C67.8385 22.5271 68.0099 22.9541 68.2013 23.4057C68.3915 23.911 68.5045 24.4668 68.4982 25.0462C68.5012 25.622 68.3885 26.2308 68.1539 26.7999C67.9392 27.3081 67.7186 27.8292 67.4922 28.3632C66.5702 30.484 65.556 32.8424 64.4367 35.4327C64.1567 36.1365 63.6356 36.9096 62.9598 37.4418C62.6254 37.7172 62.2417 37.9471 61.8276 38.1244C61.4662 38.2711 61.1105 38.405 60.7397 38.5552C59.3148 39.1129 57.8396 39.6789 56.3024 40.2788C55.5385 40.577 54.7523 40.8729 53.9603 41.1817C53.5579 41.3332 53.159 41.494 52.7566 41.6455C52.2699 41.8287 51.7457 41.9405 51.2085 41.9611C50.6748 41.991 50.134 41.9168 49.6095 41.7723C49.3566 41.6965 49.0802 41.5868 48.8648 41.497L48.2464 41.2168C47.422 40.8433 46.5789 40.4768 45.7287 40.0916C44.0318 39.3306 42.2799 38.5368 40.48 37.7291C39.4519 37.3254 38.3927 36.4419 37.8507 35.3423C37.5491 34.74 37.4316 34.3141 37.2355 33.8216C37.0559 33.3443 36.8727 32.8576 36.693 32.3803C35.9638 30.443 35.2593 28.5712 34.5852 26.752C34.422 26.2899 34.2296 25.8922 34.086 25.2837C33.9472 24.7163 33.9184 24.1288 33.9821 23.5599C34.0364 22.9945 34.2078 22.4278 34.4331 21.9476C34.6198 21.5354 34.816 21.1197 35.0027 20.7075C35.7568 19.0773 36.4724 17.5151 37.1646 16.0045C37.5124 15.2538 37.8545 14.516 38.1907 13.7911C38.3459 13.4656 38.5373 13.0089 38.8166 12.6153C39.0864 12.2252 39.4091 11.8901 39.7587 11.5982C40.1176 11.3028 40.5106 11.0694 40.9153 10.8957C41.3517 10.7208 41.636 10.6245 41.9916 10.4906C42.6784 10.2428 43.3464 10.0021 43.9957 9.76835C45.3036 9.29741 46.546 8.85114 47.7323 8.426C48.3255 8.21343 48.8999 8.0079 49.4649 7.8059C49.7586 7.70606 50.0394 7.60037 50.3237 7.50405C50.6489 7.403 50.9789 7.34291 51.2972 7.30857C51.9467 7.24575 52.5952 7.3222 53.1783 7.50876C53.7907 7.71634 54.2053 7.9663 54.6655 8.16705C58.2573 9.90306 60.8759 11.1826 62.6339 12.1344C63.5287 12.6951 63.9474 13.3816 64.1575 13.8261C64.3664 14.3244 64.3854 14.5737 64.348 14.5878Z" fill="black"/>
</g>
</g>
</g>
<g id="Group_22">
<g id="Group_23">
<path id="Vector_11" d="M51.292 13.967L54.2319 24.304C54.4822 25.1394 54.0479 26.0294 53.2243 26.3394L51.2589 27.0792C50.4447 27.3857 49.5126 27.0099 49.15 26.2169L44.5442 16.5069C44.1464 15.6202 44.5723 14.5944 45.4895 14.2492L49.1114 12.8859C50.0192 12.5442 51.0252 13.031 51.292 13.967Z" fill="white"/>
</g>
<g id="Group_24">
<g id="Group_25">
<path id="Vector_12" d="M51.2918 13.9671C51.1889 14.0058 51.048 13.6314 50.5022 13.3454C50.2375 13.2099 49.8547 13.1296 49.4675 13.2647C49.3142 13.3117 49.0136 13.4783 48.7212 13.6097C48.4287 13.7412 48.1117 13.8925 47.7725 14.0416C47.4332 14.1906 47.0788 14.3561 46.6928 14.5228C46.4998 14.6061 46.3067 14.6894 46.095 14.7798L45.7838 14.9183C45.6844 14.9664 45.647 14.9805 45.5885 15.0239C45.3757 15.1681 45.2203 15.4082 45.1961 15.6845C45.1822 15.8179 45.1999 15.9502 45.2492 16.0812C45.3618 16.2952 45.4651 16.5128 45.5812 16.7362C46.6078 18.7539 47.7882 21.1518 49.1036 23.937C49.4205 24.6084 49.7267 25.2517 50.033 25.8951C50.1796 26.1711 50.5462 26.3217 50.8469 26.2405C51.4681 26.0174 52.0706 25.8013 52.6579 25.6016L52.8825 25.5171L53.0042 25.4713C53.079 25.4431 53.1375 25.3997 53.1924 25.347C53.3058 25.2509 53.3829 25.115 53.4249 24.971C53.4633 24.8176 53.4714 24.6971 53.4232 24.5122C53.3491 24.2302 53.2844 23.9447 53.2138 23.6721C53.0785 23.114 52.9444 22.5875 52.8174 22.0797C52.5821 21.057 52.3597 20.1256 52.1597 19.282C51.4136 15.9086 51.1163 14.0117 51.2918 13.9671C51.4638 13.913 52.215 15.6818 53.3426 18.933C53.6175 19.7484 53.9182 20.6609 54.26 21.6542C54.4245 22.1479 54.5901 22.6732 54.7629 23.2173C54.8428 23.4864 54.9356 23.7613 55.0225 24.0491C55.1506 24.4176 55.2015 24.922 55.092 25.3692C54.9954 25.8223 54.7748 26.258 54.4334 26.6002C54.2628 26.7712 54.0663 26.9307 53.8523 27.0433C53.747 27.1043 53.616 27.1536 53.5259 27.1982L53.3013 27.2827C52.996 27.4083 52.6871 27.5246 52.3725 27.6537L51.8987 27.8427C51.7396 27.9026 51.6121 27.9613 51.3149 28.0518C50.2689 28.3386 49.03 27.886 48.4342 26.8708C48.2747 26.589 48.2324 26.4767 48.1433 26.2965L47.8992 25.79C47.7408 25.4543 47.5788 25.1092 47.404 24.7583C46.0792 21.9767 44.9702 19.5413 44.0524 17.4719L43.8787 17.0672L43.7954 16.8742L43.6897 16.5934C43.5769 16.2085 43.5518 15.8012 43.6227 15.4219C43.7552 14.6668 44.2566 14.04 44.8425 13.7233C44.9817 13.6389 45.1724 13.5778 45.2754 13.539L45.6006 13.438C45.81 13.3698 46.0195 13.3017 46.2195 13.2371C46.6196 13.1078 46.9952 12.9985 47.3485 12.8869C47.7054 12.7846 48.04 12.6801 48.3465 12.5861C48.666 12.4979 48.9093 12.4063 49.2931 12.3473C49.9988 12.2633 50.5445 12.5494 50.8562 12.8381C51.4762 13.4916 51.3457 13.9682 51.2918 13.9671Z" fill="black"/>
</g>
</g>
</g>
<g id="Group_26">
<g id="Group_27">
<path id="Vector_13" d="M55.1345 34.5639C56.4732 34.06 57.15 32.5663 56.6461 31.2275C56.1422 29.8888 54.6484 29.212 53.3097 29.7159C51.971 30.2198 51.2942 31.7135 51.7981 33.0523C52.302 34.391 53.7957 35.0678 55.1345 34.5639Z" fill="white"/>
</g>
<g id="Group_28">
<g id="Group_29">
<path id="Vector_14" d="M56.655 31.224C56.4655 31.3167 56.1159 30.7003 55.1547 30.389C54.684 30.2456 54.0566 30.2253 53.4812 30.5701C52.9174 30.8892 52.449 31.6318 52.6232 32.4637C52.7823 33.3121 53.546 33.8367 54.2437 33.8733C54.9612 33.9344 55.5928 33.5685 55.9492 33.1245C56.6796 32.1978 56.4443 31.2606 56.655 31.224C56.7298 31.1958 56.9255 31.3466 57.0934 31.7642C57.2448 32.1666 57.371 32.8992 56.9951 33.7458C56.6439 34.5726 55.6736 35.5148 54.2457 35.5821C53.5447 35.6215 52.7743 35.42 52.1172 34.9515C51.4506 34.4865 50.9312 33.731 50.7581 32.8452C50.5721 31.9536 50.7664 31.0791 51.1647 30.4056C51.563 29.7321 52.1465 29.2667 52.7478 29.0191C53.9691 28.5166 55.0989 28.85 55.7175 29.301C56.3711 29.7602 56.6199 30.3076 56.7058 30.6493C56.7987 31.0097 56.7298 31.1958 56.655 31.224Z" fill="black"/>
</g>
</g>
</g>
</g>
</g>
<defs>
<clipPath id="clip0_13009_491">
<rect width="66" height="66" fill="white" transform="translate(0 23.9771) rotate(-20.6261)"/>
</clipPath>
</defs>
</svg>
