<svg width="36" height="36" viewBox="0 0 36 36" fill="none" xmlns="http://www.w3.org/2000/svg">
<path d="M17.25 32.625C8.775 32.625 1.875 25.725 1.875 17.25C1.875 8.775 8.775 1.875 17.25 1.875C25.725 1.875 32.625 8.775 32.625 17.25C32.625 25.725 25.725 32.625 17.25 32.625ZM17.25 4.125C10.005 4.125 4.125 10.02 4.125 17.25C4.125 24.48 10.005 30.375 17.25 30.375C24.495 30.375 30.375 24.48 30.375 17.25C30.375 10.02 24.495 4.125 17.25 4.125Z" fill="white"/>
<path d="M33 34.125C32.715 34.125 32.43 34.02 32.205 33.795L29.205 30.795C28.9957 30.5833 28.8784 30.2976 28.8784 30C28.8784 29.7023 28.9957 29.4167 29.205 29.205C29.64 28.77 30.36 28.77 30.795 29.205L33.795 32.205C34.23 32.64 34.23 33.36 33.795 33.795C33.57 34.02 33.285 34.125 33 34.125Z" fill="white"/>
</svg>
