<svg width="48" height="50" viewBox="0 0 48 50" fill="none" xmlns="http://www.w3.org/2000/svg">
    <g id="wallet 1">
        <g id="Group">
            <path id="Vector" fill-rule="evenodd" clip-rule="evenodd"
                  d="M39.5 13.708V11C39.5 9.5413 38.9206 8.14236 37.889 7.11092C36.8574 6.07948 35.4587 5.5 34 5.5H10C8.5413 5.5 7.14236 6.07948 6.11092 7.11092C5.07948 8.14236 4.5 9.5413 4.5 11V39C4.5 40.4587 5.07948 41.8576 6.11092 42.889C7.14236 43.9205 8.5413 44.5 10 44.5H38C39.4587 44.5 40.8576 43.9205 41.889 42.889C42.9206 41.8576 43.5 40.4587 43.5 39V19C43.5 16.482 41.808 14.36 39.5 13.708ZM7.5 11C7.5 9.62 8.62 8.5 10 8.5H34C35.38 8.5 36.5 9.62 36.5 11V13.5H10C8.62 13.5 7.5 12.38 7.5 11ZM7.5 15.9C8.25 16.284 9.1 16.5 10 16.5H38C39.38 16.5 40.5 17.62 40.5 19V23H33.5C32.712 23 31.924 23 31.136 23H16.864C16.076 23 15.288 23 14.5 23H10C8.62 23 7.5 21.88 7.5 20.5V15.9ZM16.864 19.5C16.076 19.5 15.288 19.5 14.5 19.5H10C8.62 19.5 7.5 18.38 7.5 17.05V15.9C7.5 14.576 8.62 13.452 10 13.452H14.5C15.288 13.452 16.076 13.452 16.864 13.452H31.136C31.924 13.452 32.712 13.452 33.5 13.452H38C39.38 13.452 40.5 14.576 40.5 15.9V19.5H33.5C32.712 19.5 31.924 19.5 31.136 19.5H16.864Z"
                  fill="#FFCA05"/>
        </g>
    </g>
</svg>
